<?xml version="1.0" encoding="UTF-8"?>
<svg width="256px" height="281px" viewBox="0 0 256 281" version="1.1" xmlns="http://www.w3.org/2000/svg" xmlns:xlink="http://www.w3.org/1999/xlink">
    <title>VAXX</title>
    <g>
        <path d="M72.9352541,128.93911 C73.8035309,128.93911 74.5849801,128.649684 75.2796016,128.070833 C75.974223,127.491982 76.5820168,126.782889 77.1029829,125.943555 C77.623949,125.104221 78.08703,124.19253 78.4922259,123.208483 C78.8974217,122.224436 79.2447324,121.327216 79.5341581,120.516825 L79.5341581,120.516825 L124.337243,3.90724576 L124.337243,3.64676271 C124.395128,3.47310734 124.42407,3.15473917 124.42407,2.69165819 C124.42407,1.88126648 124.149116,1.23005885 123.599207,0.738035309 C123.049299,0.24601177 122.108666,0 120.777308,0 L120.777308,0 L93.4265874,0 C91.0532974,0 89.4614565,1.09981732 88.6510648,3.29945197 C86.2777748,9.89835591 84.0057838,16.4827886 81.8350917,23.05275 C79.6643996,29.6227113 77.5226501,36.207144 75.4098431,42.8060479 L73.8198111,47.7525125 C72.2243525,52.6962638 70.6126136,57.6318749 68.9845945,62.5593459 C66.8139024,69.1293073 64.5419114,75.71374 62.1686214,82.3126439 L62.1686214,82.3126439 L35.6861779,3.29945197 C34.8757862,1.09981732 33.370773,0 31.1711384,0 L31.1711384,0 L3.21262429,0 C1.07087476,0 0,0.810391712 0,2.43117514 C0,2.66271563 0.0434138417,2.89425612 0.130241525,3.1257966 C0.217069209,3.35733709 0.26048305,3.61782014 0.26048305,3.90724576 L0.26048305,3.90724576 L44.8030847,120.516825 C45.2661656,121.674527 45.7437179,122.803287 46.2357414,123.903104 C46.727765,125.002922 47.2921449,126.073796 47.9288813,127.115729 C48.5077325,128.331316 49.6943775,128.93911 51.4888163,128.93911 L51.4888163,128.93911 L72.9352541,128.93911 Z M158.54735,128.93911 C160.746985,128.93911 162.223055,127.868235 162.975562,125.726486 C164.075379,122.774344 165.189668,119.836674 166.318428,116.913476 C167.447188,113.990277 168.561476,111.052607 169.661293,108.100466 L169.661293,108.100466 L215.766793,108.100466 C216.866611,111.052607 217.966428,113.990277 219.066245,116.913476 C220.166063,119.836674 221.294823,122.774344 222.452525,125.726486 C222.857721,126.884188 223.422101,127.709051 224.145665,128.201075 C224.869229,128.693098 225.89669,128.93911 227.228048,128.93911 L227.228048,128.93911 L252.147593,128.93911 C253.710491,128.93911 254.810308,128.577328 255.447045,127.853764 C256.083781,127.1302 256.170609,126.189567 255.707528,125.031864 L255.707528,125.031864 L210.122994,7.46718078 L207.952302,2.51800282 C207.604991,2.05492184 207.084025,1.51948446 206.389404,0.911690676 C205.694782,0.303896892 204.855448,0 203.871401,0 L203.871401,0 L181.643514,0 C181.180433,0 180.688409,0.101298964 180.167443,0.303896892 C179.646477,0.50649482 179.154454,0.781449151 178.691373,1.12875989 C178.228292,1.47607062 177.837567,1.85232391 177.519199,2.25751977 C177.200831,2.66271563 177.012704,3.03896892 176.954819,3.38627966 L176.954819,3.38627966 L129.807387,125.466003 C129.344306,126.623705 129.474547,127.491982 130.198111,128.070833 C130.921675,128.649684 131.833366,128.93911 132.933183,128.93911 L132.933183,128.93911 L158.54735,128.93911 Z M206.042093,80.2287795 L179.385994,80.2287795 C180.485811,77.2766383 181.6001,74.1074278 182.72886,70.7211482 C183.85762,67.3348685 184.971908,63.905175 186.071726,60.4320677 C187.171543,56.9589604 188.285832,53.5147956 189.414591,50.0995734 C190.543351,46.6843511 191.65764,43.5006694 192.757457,40.5485282 L192.757457,40.5485282 L206.042093,80.2287795 Z M36.5978686,280.209215 C37.5819157,280.209215 38.4791351,279.919789 39.2895268,279.340938 C40.0999185,278.762087 40.7366548,277.980638 41.1997358,276.99659 L41.1997358,276.99659 L64.5563827,242.005034 L88.1735126,276.99659 C88.6365935,277.980638 89.2733299,278.762087 90.0837216,279.340938 C90.8941133,279.919789 91.7913327,280.209215 92.7753798,280.209215 L92.7753798,280.209215 L123.85969,280.209215 C124.901623,280.209215 125.422589,279.775076 125.422589,278.906799 C125.480474,278.443719 125.350232,277.879339 125.031864,277.21366 C124.713496,276.547981 124.264886,275.809945 123.686035,274.999554 L123.686035,274.999554 L82.9638516,214.220175 L122.904586,154.569557 C123.541322,153.759165 123.85969,153.006658 123.85969,152.312037 C123.85969,151.964726 123.657093,151.704243 123.251897,151.530588 C122.846701,151.356932 122.369149,151.255634 121.81924,151.226691 C121.269331,151.197748 120.676009,151.183277 120.039272,151.183277 L120.039272,151.183277 L91.1256538,151.183277 C88.9839043,151.183277 87.3052357,152.283094 86.0896482,154.482729 L86.0896482,154.482729 L64.5563827,186.435317 L43.2836002,154.482729 C42.0680126,152.283094 40.3893441,151.183277 38.2475946,151.183277 L38.2475946,151.183277 L8.03156072,151.183277 C7.4527095,151.472703 6.88832955,151.602944 6.33842089,151.574002 C5.78851223,151.545059 5.45567278,151.762128 5.33990253,152.225209 C5.39778766,152.68829 5.52802918,153.122429 5.73062711,153.527625 C5.93322504,153.93282 6.20817937,154.366959 6.5554901,154.83004 C13.2122792,164.844166 19.7967118,174.742522 26.3087881,184.525108 C32.8208643,194.307693 39.405297,204.206049 46.0620861,214.220175 L46.0620861,214.220175 L6.98962852,272.568379 C6.35289217,273.494541 5.78851223,274.406231 5.29648869,275.303451 C4.80446515,276.20067 4.32691289,277.083418 3.86383191,277.951695 C3.74806167,278.183235 3.69017655,278.443719 3.69017655,278.733144 C3.69017655,279.196225 3.86383191,279.558007 4.21114265,279.81849 C4.55845338,280.078973 4.96364924,280.209215 5.42673022,280.209215 L5.42673022,280.209215 L36.5978686,280.209215 Z M162.84532,280.209215 C163.829367,280.209215 164.726587,279.919789 165.536979,279.340938 C166.34737,278.762087 166.984107,277.980638 167.447188,276.99659 L167.447188,276.99659 L190.803834,242.005034 L214.420964,276.99659 C214.884045,277.980638 215.520782,278.762087 216.331173,279.340938 C217.141565,279.919789 218.038784,280.209215 219.022832,280.209215 L219.022832,280.209215 L250.107142,280.209215 C251.149074,280.209215 251.670041,279.775076 251.670041,278.906799 C251.727926,278.443719 251.597684,277.879339 251.279316,277.21366 C250.960948,276.547981 250.512338,275.809945 249.933487,274.999554 L249.933487,274.999554 L209.211303,214.220175 L249.152038,154.569557 C249.788774,153.759165 250.107142,153.006658 250.107142,152.312037 C250.107142,151.964726 249.904544,151.704243 249.499348,151.530588 C249.094153,151.356932 248.6166,151.255634 248.066692,151.226691 C247.516783,151.197748 246.92346,151.183277 246.286724,151.183277 L246.286724,151.183277 L217.373106,151.183277 C215.231356,151.183277 213.552687,152.283094 212.3371,154.482729 L212.3371,154.482729 L190.803834,186.435317 L169.531052,154.482729 C168.315464,152.283094 166.636796,151.183277 164.495046,151.183277 L164.495046,151.183277 L134.279012,151.183277 C133.700161,151.472703 133.135781,151.602944 132.585873,151.574002 C132.035964,151.545059 131.703125,151.762128 131.587354,152.225209 C131.645239,152.68829 131.775481,153.122429 131.978079,153.527625 C132.180677,153.93282 132.455631,154.366959 132.802942,154.83004 C139.459731,164.844166 146.044164,174.742522 152.55624,184.525108 C159.068316,194.307693 165.652749,204.206049 172.309538,214.220175 L172.309538,214.220175 L133.23708,272.568379 C132.600344,273.494541 132.035964,274.406231 131.54394,275.303451 C131.051917,276.20067 130.574365,277.083418 130.111284,277.951695 C129.995513,278.183235 129.937628,278.443719 129.937628,278.733144 C129.937628,279.196225 130.111284,279.558007 130.458594,279.81849 C130.805905,280.078973 131.211101,280.209215 131.674182,280.209215 L131.674182,280.209215 L162.84532,280.209215 Z" fill="#000000"></path>
    </g>
</svg>